<svg id="_004-linkedin" data-name="004-linkedin" xmlns="http://www.w3.org/2000/svg" width="51" height="51" viewBox="0 0 51 51">
  <defs>
    <style>
      .cls-1, .cls-2 {
        fill: #989898;
      }

      .cls-1 {
        fill-rule: evenodd;
      }
    </style>
  </defs>
  <path id="Path" class="cls-1" d="M2336.99,11481H2337v-18.8c0-9.2-2-16.3-12.86-16.3a11.326,11.326,0,0,0-10.16,5.6h-0.15v-4.7h-10.3v34.2h10.73v-16.9c0-4.5.85-8.8,6.43-8.8,5.5,0,5.58,5.1,5.58,9v16.7h10.72Z" transform="translate(-2286 -11430)"/>
  <rect id="Path-2" data-name="Path" class="cls-2" y="17.5" width="11.16" height="33.5"/>
  <path id="Path-3" data-name="Path" class="cls-1" d="M2292.37,11430a6.327,6.327,0,0,0-6.37,6.3,6.375,6.375,0,1,0,12.75,0A6.329,6.329,0,0,0,2292.37,11430Z" transform="translate(-2286 -11430)"/>
</svg>
