<svg id="_003-youtube" data-name="003-youtube" xmlns="http://www.w3.org/2000/svg" width="47" height="31" viewBox="0 0 47 31">
  <defs>
    <style>
      .cls-1 {
        fill: #989898;
        fill-rule: evenodd;
      }
    </style>
  </defs>
  <path id="Shape" class="cls-1" d="M2402.24,11450h-27.48c-5.39,0-9.76,4.1-9.76,9.1v12.8c0,5,4.37,9.1,9.76,9.1h27.48c5.39,0,9.76-4.1,9.76-9.1v-12.8C2412,11454.1,2407.63,11450,2402.24,11450Zm-6.76,16.1-13.5,5.6a0.572,0.572,0,0,1-.77-0.5v-11.4a0.5,0.5,0,0,1,.78-0.4l13.51,5.9C2395.9,11465.4,2395.89,11465.9,2395.48,11466.1Z" transform="translate(-2365 -11450)"/>
</svg>
