<?xml version="1.0" encoding="UTF-8"?> <svg xmlns="http://www.w3.org/2000/svg" width="48" height="48" viewBox="0 0 48 48"><defs><style> .cls-1 { fill: #fff; fill-rule: evenodd; } </style></defs><path class="cls-1" d="M2371.99,4592H2372v-17.69c0-8.65-1.88-15.31-12.11-15.31a10.646,10.646,0,0,0-9.56,5.2h-0.14v-4.39h-9.69V4592h10.09v-15.94c0-4.2.81-8.26,6.06-8.26,5.18,0,5.25,4.79,5.25,8.53V4592h10.09ZM2324,4560.5h10.5V4592H2324v-31.5Zm6-16.5a6,6,0,1,0,6,5.97A5.986,5.986,0,0,0,2330,4544Z" transform="translate(-2324 -4544)"></path></svg> 