<svg xmlns="http://www.w3.org/2000/svg" width="19" height="21" viewBox="0 0 19 21">
<defs>
    <style>
      .cls-1 {
        fill: #989898;
        fill-rule: evenodd;
      }
    </style>
  </defs>
  <path class="cls-1" d="M5828.68,106.946l-0.02-.044-4.75-2.77a1.843,1.843,0,0,0-2.02.089l-1.05.886h-0.2c-0.94,0-1.43-.643-2.24-1.706-0.27-.354-0.56-0.752-0.92-1.174-0.34-.4-0.67-0.752-0.96-1.085-0.99-1.063-1.59-1.706-1.35-2.681,0.18-.155.72-0.6,1.08-0.886a1.713,1.713,0,0,0,.42-1.95l-1.92-5.116-0.03-.044a1.322,1.322,0,0,0-1.83-.178c-0.47.31-2.6,1.795-2.76,2.526-0.65,3.124,1.17,8,4.41,11.83,3.23,3.809,7.53,6.356,10.74,6.356h0.27c0.76-.044,2.62-1.839,3-2.214a1.3,1.3,0,0,0,.13-1.839" transform="translate(-5810 -90)"/>
</svg>
