<svg xmlns="http://www.w3.org/2000/svg" width="770" height="1113" viewBox="0 0 770 1113">
<defs>
    <style>
      .cls-1 {
        opacity: 0.21;
      }

      .cls-2 {
        fill: #989898;
        fill-rule: evenodd;
      }
    </style>
  </defs>
  <g class="cls-1">
      <path class="cls-2" d="M7531,5201.93l-1.91-2.1c-144.98-10.5-257.34-131.27-257.6-276.91,0-2.41-1.09-415.92-1.09-415.92-142.92,12.82-252.53,132.67-252.82,276.43L7017,5056.01S7015.4,5202,7182.76,5202Z" transform="translate(-7017 -4507)"/>
      <path class="cls-2" d="M7273,4915.05l1.89,2.12c145.01,10.45,257.42,131.38,257.68,277.22,0,2.41,1.1,425.61,1.1,425.61,142.9-12.83,252.49-132.81,252.77-276.73l0.56-282.12S7788.68,4915,7621.28,4915Z" transform="translate(-7017 -4507)"/>
  </g>
</svg>
