<svg xmlns="http://www.w3.org/2000/svg" width="30" height="24" viewBox="0 0 30 24">
<defs>
    <style>
      .cls-1 {
        fill: #989898;
        fill-rule: evenodd;
      }
    </style>
  </defs>
  <path class="cls-1" d="M5296.06,7921.19c-2.45-2.44-3.3-4.9-1.68-8a18.43,18.43,0,0,0,12.97,6.19c0-.58-0.01-1.01,0-1.44a6.172,6.172,0,0,1,9.42-5,4.164,4.164,0,0,0,4.49.16,1.253,1.253,0,0,1,.97-0.08c-0.68.88-1.37,1.77-2.16,2.79,0.91-.23,1.72-0.44,2.93-0.74a7.641,7.641,0,0,1-1.22,1.41c-1.69,1.03-1.79,2.61-2.03,4.3-2.01,14.24-17.16,18.39-26.75,12.87a39.3,39.3,0,0,0,4.33-.77,19.9,19.9,0,0,0,4-1.82c-2.62-.54-4.54-1.7-5.53-4.23l2.41-.19c-2.83-1.24-4.51-2.99-4.69-5.98C5294.36,7920.84,5295.05,7920.98,5296.06,7921.19Z" transform="translate(-5293 -7912)"/>
</svg>
