<svg xmlns="http://www.w3.org/2000/svg" width="29.72" height="28.66" viewBox="0 0 29.72 28.66">
<defs>
    <style>
      .cls-1 {
        fill-opacity: 0;
      }

      .cls-1, .cls-2 {
        fill-rule: evenodd;
      }

      .cls-2 {
        fill: #989898;
      }
    </style>
  </defs>
  <path class="cls-1" d="M5342,7908.23h29.73v28.64H5342v-28.64Z" transform="translate(-5342 -7908.22)"/>
      <path id="Fill_1" data-name="Fill 1" class="cls-2" d="M5357.29,7909.59c-9.78.03-16.35,9.03-12.93,17.36a7.2,7.2,0,0,1,.15,5.18,15.363,15.363,0,0,0-.32,2.64,14.227,14.227,0,0,0,2.64-.34,8.781,8.781,0,0,1,5.85.13,12.773,12.773,0,0,0,14.06-3.53c3.81-4.03,4.62-8.8,2.31-13.78s-6.57-7.41-11.76-7.66m-0.65,27.28a48.876,48.876,0,0,1-5.15-1.23,4.826,4.826,0,0,0-3.22-.16,19.508,19.508,0,0,1-3.1.77,2.066,2.066,0,0,1-2.54-2.65,5.27,5.27,0,0,1,.14-0.57,8.591,8.591,0,0,0-.02-6.44c-2.71-7.58,2.2-15.86,10.28-17.88a14.918,14.918,0,0,1,18.38,10.88c1.75,7.75-3.88,15.61-12.12,16.89-0.85.13-1.73,0.13-2.59,0.19-0.02.07-.04,0.14-0.06,0.2" transform="translate(-5342 -7908.22)"/>
  <path class="cls-2" d="M5360.15,7928.57a6.472,6.472,0,0,0,1.31-.01,2.959,2.959,0,0,0,2.47-2.28c0.3-1.49-.98-1.48-1.75-1.95a2,2,0,0,0-.94-0.43,1.712,1.712,0,0,0-1.26.31c-0.96,1.61-2.11,1.23-3.2.33a26.909,26.909,0,0,1-2.82-2.83,1.216,1.216,0,0,1-.23-1.03c1.57-1.38.55-2.72-.02-4.04a1.518,1.518,0,0,0-2.71-.39,4,4,0,0,0-.45,4.74,26.509,26.509,0,0,0,3.4,4.49,10.908,10.908,0,0,0,6.2,3.09m-13,3.44c0.99-2.25.5-4.08-.34-6.08a10.767,10.767,0,0,1,4.05-13.04,10.983,10.983,0,0,1,15.72,14.48,10.759,10.759,0,0,1-12.66,5.11c-2.23-.73-4.34-1.59-6.77-0.47" transform="translate(-5342 -7908.22)"/>
</svg>
