<svg xmlns="http://www.w3.org/2000/svg" width="44" height="30" viewBox="0 0 44 30">
  <defs>
    <style>
      .cls-1 {
        fill: #fff;
        fill-rule: evenodd;
      }
    </style>
  </defs>
  <path id="Shape" class="cls-1" d="M2425.86,4562h-25.72a8.974,8.974,0,0,0-9.14,8.8v12.39a8.975,8.975,0,0,0,9.14,8.81h25.72a8.975,8.975,0,0,0,9.14-8.81V4570.8A8.974,8.974,0,0,0,2425.86,4562Zm-6.32,15.58-12.64,5.38a0.513,0.513,0,0,1-.73-0.41v-11.1a0.512,0.512,0,0,1,.74-0.4l12.64,5.71A0.44,0.44,0,0,1,2419.54,4577.58Z" transform="translate(-2391 -4562)"/>
</svg>
