<svg xmlns="http://www.w3.org/2000/svg" width="21" height="14" viewBox="0 0 21 14">
  <defs>
    <style>
      .cls-1 {
        fill: #989898;
        fill-rule: evenodd;
      }
    </style>
  </defs>
  <path class="cls-1" d="M5782.64,97h-12.28a4.238,4.238,0,0,0-4.36,4.109v5.781a4.238,4.238,0,0,0,4.36,4.109h12.28a4.238,4.238,0,0,0,4.36-4.109v-5.781A4.238,4.238,0,0,0,5782.64,97Zm-3.02,7.269-6.03,2.51a0.245,0.245,0,0,1-.35-0.191v-5.177a0.242,0.242,0,0,1,.35-0.188l6.04,2.667A0.2,0.2,0,0,1,5779.62,104.269Z" transform="translate(-5766 -97)"/>
</svg>
